<svg width="126" height="80" viewBox="0 0 126 80" fill="none" xmlns="http://www.w3.org/2000/svg">
<path d="M33.0217 53.7935C30.9606 53.7935 29.3899 53.2064 28.3098 52.0324C27.2244 50.8583 26.6818 49.2015 26.6818 47.0621V32.3472C26.6818 30.2077 27.2244 28.551 28.3098 27.3769C29.3899 26.2029 30.9606 25.6158 33.0217 25.6158C35.0829 25.6158 36.6561 26.2029 37.7415 27.3769C38.8216 28.551 39.3617 30.2077 39.3617 32.3472V35.2432H35.2916V32.0732C35.2916 30.3773 34.5741 29.5294 33.1391 29.5294C31.7042 29.5294 30.9867 30.3773 30.9867 32.0732V47.3752C30.9867 49.045 31.7042 49.8799 33.1391 49.8799C34.5741 49.8799 35.2916 49.045 35.2916 47.3752V43.1877H39.3617V47.0621C39.3617 49.2015 38.8216 50.8583 37.7415 52.0324C36.6561 53.2064 35.0829 53.7935 33.0217 53.7935ZM41.9446 53.4021V26.0072H53.6853V29.9207H46.2496V37.1608H52.159V41.0744H46.2496V49.4885H53.6853V53.4021H41.9446ZM56.143 53.4021V26.0072H62.2952L65.0346 45.6141H65.1129L67.8524 26.0072H73.9967V53.4021H69.9266V32.6602H69.8405L66.7096 53.4021H63.117L59.9862 32.6602H59.9079V53.4021H56.143ZM77.198 53.4021V26.0072H83.3423L86.0818 45.6141H86.16L88.8995 26.0072H95.0438V53.4021H90.9737V32.6602H90.8954L87.7646 53.4021H84.1641L81.0333 32.6602H80.955V53.4021H77.198ZM104.476 53.7935C102.362 53.7935 100.745 53.1934 99.6227 51.9932C98.5008 50.7931 97.9399 49.0972 97.9399 46.9056V32.5037C97.9399 30.3121 98.5008 28.6162 99.6227 27.4161C100.745 26.2159 102.362 25.6158 104.476 25.6158C106.589 25.6158 108.206 26.2159 109.328 27.4161C110.45 28.6162 111.011 30.3121 111.011 32.5037V46.9056C111.011 49.0972 110.45 50.7931 109.328 51.9932C108.206 53.1934 106.589 53.7935 104.476 53.7935ZM104.476 49.8799C105.963 49.8799 106.706 48.9798 106.706 47.1795V32.2297C106.706 30.4295 105.963 29.5294 104.476 29.5294C102.988 29.5294 102.245 30.4295 102.245 32.2297V47.1795C102.245 48.9798 102.988 49.8799 104.476 49.8799ZM119.504 53.7935C117.416 53.7935 115.838 53.1986 114.768 52.0089C113.698 50.8244 113.164 49.1233 113.164 46.9056V45.3402H117.234V47.2187C117.234 48.9928 117.977 49.8799 119.464 49.8799C120.195 49.8799 120.748 49.6633 121.124 49.2302C121.505 48.8024 121.695 48.1057 121.695 47.1404C121.695 45.9924 121.434 44.9801 120.912 44.1035C120.391 43.2321 119.425 42.1832 118.016 40.957C116.242 39.3916 115.003 37.9748 114.299 36.7069C113.594 35.4441 113.242 34.0169 113.242 32.4254C113.242 30.2599 113.79 28.5823 114.886 27.3926C115.981 26.2081 117.573 25.6158 119.66 25.6158C121.721 25.6158 123.279 26.2081 124.333 27.3926C125.392 28.5823 125.922 30.286 125.922 32.5037V33.6386H121.852V32.2297C121.852 31.2905 121.669 30.6043 121.304 30.1712C120.939 29.7433 120.404 29.5294 119.699 29.5294C118.264 29.5294 117.547 30.4034 117.547 32.1515C117.547 33.1429 117.813 34.0691 118.345 34.9301C118.883 35.7911 119.856 36.8347 121.265 38.0609C123.065 39.6264 124.304 41.0483 124.983 42.3267C125.661 43.6052 126 45.1054 126 46.8273C126 49.0711 125.444 50.7931 124.333 51.9932C123.227 53.1934 121.617 53.7935 119.504 53.7935Z" fill="white"/>
<path d="M79.4093 23.1777V0H0V79.4093H79.4093V56.2315H76.8679V76.8679H2.54094V2.54135H76.8679V23.1777H79.4093Z" fill="#D94F08"/>
</svg>
